<svg xmlns="http://www.w3.org/2000/svg" viewBox="0 0 32 32" width="32" height="32">
  <defs>
    <linearGradient id="grad1" x1="0%" y1="0%" x2="100%" y2="100%">
      <stop offset="0%" style="stop-color:#000000;stop-opacity:1" />
      <stop offset="100%" style="stop-color:#dc2626;stop-opacity:1" />
    </linearGradient>
  </defs>
  
  <!-- Background circle -->
  <circle cx="16" cy="16" r="15" fill="url(#grad1)" stroke="#ffffff" stroke-width="1"/>
  
  <!-- Bar chart bars -->
  <rect x="8" y="20" width="2" height="8" fill="#ffffff" rx="1"/>
  <rect x="12" y="16" width="2" height="12" fill="#ffffff" rx="1"/>
  <rect x="16" y="12" width="2" height="16" fill="#ffffff" rx="1"/>
  <rect x="20" y="18" width="2" height="10" fill="#ffffff" rx="1"/>
  <rect x="24" y="14" width="2" height="14" fill="#ffffff" rx="1"/>
  
  <!-- Data points -->
  <circle cx="9" cy="18" r="1" fill="#dc2626"/>
  <circle cx="13" cy="14" r="1" fill="#dc2626"/>
  <circle cx="17" cy="10" r="1" fill="#dc2626"/>
  <circle cx="21" cy="16" r="1" fill="#dc2626"/>
  <circle cx="25" cy="12" r="1" fill="#dc2626"/>
  
  <!-- AI/ML representation -->
  <path d="M 6 6 L 10 10 M 26 6 L 22 10 M 6 26 L 10 22 M 26 26 L 22 22" 
        stroke="#ffffff" stroke-width="1.5" stroke-linecap="round"/>
</svg>
